{"title":"Grown.Ups.2010.R5.LiNE.XviD-MAGNET","uid":5793955,"size":881669183,"categoryP":"video","categoryS":"movies","magnet":"?xt=urn:btih:03e6e7931da516095e8cceacaccc6af95e9851ef&amp;dn=Grown.Ups.2010.R5.LiNE.XviD-MAGNET&amp;tr=udp%3A%2F%2Ftracker.openbittorrent.com%3A80&amp;tr=udp%3A%2F%2Fopen.demonii.com%3A1337&amp;tr=udp%3A%2F%2Ftracker.coppersurfer.tk%3A6969&amp;tr=udp%3A%2F%2Fexodus.desync.com%3A6969","seeders":0,"leechers":0,"uploader":"hiest","files":-1,"time":1282968588,"description":" \nAfter their high school basketball coach passes away, five good friends and former teammates reunite for a Fourth of July holiday weekend.\n\n\n  &lt;a href=&quot;\nhttp://www.imdb.com/title/tt1375670/&quot; rel=&quot;nofollow&quot; target=&quot;_NEW&quot;&gt;\nhttp://www.imdb.com/title/tt1375670/&lt;/a&gt;\nGenre:Comedy \n\n\n \nVideo\nID : 0\nFormat : MPEG-4 Visual\nFormat profile : Advanced Simple@L5\nFormat settings, BVOP : Yes\nFormat settings, QPel : No\nFormat settings, GMC : No warppoints\nFormat settings, Matrix : Custom\nCodec ID : XVID\nCodec ID/Hint : XviD\nDuration : 1h 38mn\nBit rate : 860 Kbps\nWidth : 624 pixels\nHeight : 336 pixels\nDisplay aspect ratio : 1.857\nFrame rate : 25.000 fps\nResolution : 8 bits\nColorimetry : 4:2:0\nScan type : Progressive\nBits/(Pixel*Frame) : 0.164\nStream size : 604 MiB (72%)\nWriting library : XviD 1.2.1 (UTC 2008-12-04)\n\nAudio\nID : 1\nFormat : AC-3\nFormat/Info : Audio Coding 3\nCodec ID : 2000\nDuration : 1h 38mn\nBit rate mode : Constant\nBit rate : 320 Kbps\nChannel(s) : 2 channels\nChannel positions : L R\nSampling rate : 48.0 KHz\nVideo delay : 18ms\nStream size : 225 MiB (27%)\nAlignment : Split accross interleaves\nInterleave, duration : 40 ms (1.00 video frame)\nInterleave, preload duration : 500 ms\n\n\n\n\n &lt;a href=&quot;\nhttp://thepiratebay.se/user/hiest&quot; rel=&quot;nofollow&quot; target=&quot;_NEW&quot;&gt;\nhttp://thepiratebay.se/user/hiest&lt;/a&gt;\n\n\n\n\n\n\nScreenshots:\n &lt;a href=&quot;\nhttp://postimg.com/image/21000/20544.jpg&quot; rel=&quot;nofollow&quot; target=&quot;_NEW&quot;&gt;\nhttp://postimg.com/image/21000/20544.jpg&lt;/a&gt;\n\n\n\n\n\nRelease Notes:\n\nsync goes off a lil bit in the beginning but comes back.","torrent":{"xt":"urn:btih:03e6e7931da516095e8cceacaccc6af95e9851ef","amp;dn":"Grown.Ups.2010.R5.LiNE.XviD-MAGNET","amp;tr":["udp%3A%2F%2Ftracker.openbittorrent.com%3A80","udp%3A%2F%2Fopen.demonii.com%3A1337","udp%3A%2F%2Ftracker.coppersurfer.tk%3A6969","udp%3A%2F%2Fexodus.desync.com%3A6969"],"infoHash":"03e6e7931da516095e8cceacaccc6af95e9851ef","infoHashBuffer":{"type":"Buffer","data":[3,230,231,147,29,165,22,9,94,140,206,172,172,204,106,249,94,152,81,239]},"announce":[],"urlList":[]}}